# xmcd
#
# Track frame offsets:
#	150
#	16009
#	23807
#	32133
#	60100
#	81970
#	104864
#	120586
#	128693
#	138546
#	160599
#	179581
#	203435
#	225643
#
# Disc length: 3206 seconds
# Revision: 0
# Processed by: cddbd v1.5.2PL0 Copyright (c) Steve Scherf et al.
# Submitted via: dBpowerAMP V12.0
#
DISCID=ac0c840e
DTITLE=Hale Dwoskin - Practical Freedom CD 05 - High Self-Esteem
DYEAR=2005
DGENRE=Speech
TTITLE0=Introduction
TTITLE1=Welcoming What Is
TTITLE2=Disapproving of Yourself
TTITLE3=Rejecting Yourself - Self-Doubt
TTITLE4=Feeling Inferior
TTITLE5=Being Stupid - Being Confident
TTITLE6=Being Hard on Yourself - Take a Break
TTITLE7=Welcome Back
TTITLE8=Being Worthless
TTITLE9=Being Shy - Being Clumsy
TTITLE10=Being Undesirable - Being Ugly
TTITLE11=Being Invisible - Being Unlovable - Feeling Like a Loser
TTITLE12=Being a Good Person - Self-Worth
TTITLE13=Love and Hate - Conclusion
EXTD=
EXTT0=
EXTT1=
EXTT2=
EXTT3=
EXTT4=
EXTT5=
EXTT6=
EXTT7=
EXTT8=
EXTT9=
EXTT10=
EXTT11=
EXTT12=
EXTT13=
PLAYORDER=
